<svg version="1.1" id="Layer_1" xmlns="http://www.w3.org/2000/svg" xmlns:xlink="http://www.w3.org/1999/xlink" x="0px" y="0px"
	 width="100%" viewBox="0 0 160 160" enable-background="new 0 0 160 160" xml:space="preserve">
<path fill="#000000" opacity="1.000000" stroke="none" 
	d="
M0.999999,74.000000 
	C1.000000,49.701500 1.000000,25.402998 1.000000,1.052248 
	C54.222115,1.052248 107.444290,1.052248 161.000000,1.052248 
	C161.000000,25.019865 161.000000,49.041275 160.628143,73.615173 
	C159.569733,72.919106 158.707672,71.734596 158.224884,70.411667 
	C154.951065,61.440796 148.692184,55.439468 139.827789,51.510551 
	C133.755478,36.795132 120.569588,31.483276 106.708694,36.994232 
	C105.574753,36.016788 104.732841,35.211811 103.903122,34.394459 
	C94.090225,24.727768 82.611588,22.783926 69.652718,26.623129 
	C62.852760,28.637688 58.527519,33.687786 54.116505,38.527802 
	C48.188683,45.032154 40.804752,47.879456 32.369286,49.057442 
	C18.242365,51.030220 7.538410,57.537189 3.019237,71.954178 
	C2.764383,72.767220 1.691921,73.323967 0.999999,74.000000 
z"/>
<path fill="#000000" opacity="1.000000" stroke="none" 
	d="
M161.000000,89.000000 
	C161.000000,112.965424 161.000000,136.930847 161.000000,160.948135 
	C107.778122,160.948135 54.556183,160.948135 1.000000,160.948135 
	C1.000000,137.313492 1.000000,113.625404 1.372079,89.387032 
	C3.549577,92.502655 5.354996,96.168556 7.088946,100.313690 
	C7.010958,108.430199 6.936009,116.068214 7.018583,123.704536 
	C7.090531,130.358093 13.501352,136.891571 20.130068,136.969696 
	C27.429712,137.055725 34.732327,136.889969 42.495262,136.906097 
	C74.948975,136.986053 106.942810,136.814056 138.931992,137.123062 
	C147.332047,137.204208 153.274292,132.690720 153.859528,126.034592 
	C154.614120,117.452362 154.041870,108.753479 154.333328,99.909859 
	C155.864594,97.250137 157.021011,94.738708 158.377045,92.340141 
	C159.065811,91.121857 160.114197,90.106880 161.000000,89.000000 
z"/>
<path fill="#449214" opacity="1.000000" stroke="none" 
	d="
M7.160414,99.834465 
	C5.354996,96.168556 3.549577,92.502655 1.372079,88.918373 
	C1.000000,84.310745 1.000000,79.621490 0.999999,74.466118 
	C1.691921,73.323967 2.764383,72.767220 3.019237,71.954178 
	C7.538410,57.537189 18.242365,51.030220 32.369286,49.057442 
	C40.804752,47.879456 48.188683,45.032154 54.116505,38.527802 
	C58.527519,33.687786 62.852760,28.637688 69.652718,26.623129 
	C82.611588,22.783926 94.090225,24.727768 103.903122,34.394459 
	C104.732841,35.211811 105.574753,36.016788 106.618538,37.312317 
	C104.236465,40.468899 101.646851,43.140667 98.587448,45.852940 
	C80.355370,44.638779 64.814819,50.068642 50.880169,61.285694 
	C38.385307,57.028809 26.982933,61.528564 21.931505,72.378029 
	C16.993229,82.984459 20.914494,94.718346 31.568218,101.512993 
	C31.453365,105.573196 31.301952,109.225731 30.754627,112.842758 
	C26.369726,111.589363 22.380732,110.371460 18.121998,108.918213 
	C14.288309,105.733398 10.724361,102.783928 7.160414,99.834465 
z"/>
<path fill="#449215" opacity="1.000000" stroke="none" 
	d="
M161.000000,88.533882 
	C160.114197,90.106880 159.065811,91.121857 158.377045,92.340141 
	C157.021011,94.738708 155.864594,97.250137 154.117889,99.585938 
	C151.558426,86.719246 146.349243,75.430206 138.293411,65.163063 
	C139.017426,60.450714 139.503754,56.131649 139.990082,51.812580 
	C148.692184,55.439468 154.951065,61.440796 158.224884,70.411667 
	C158.707672,71.734596 159.569733,72.919106 160.628143,74.083832 
	C161.000000,78.689255 161.000000,83.378510 161.000000,88.533882 
z"/>
<path fill="#F72F2A" opacity="1.000000" stroke="none" 
	d="
M139.827789,51.510551 
	C139.503754,56.131649 139.017426,60.450714 138.029755,64.988174 
	C126.970558,54.247139 114.024879,48.024345 99.057236,45.812439 
	C101.646851,43.140667 104.236465,40.468899 106.916229,37.479042 
	C120.569588,31.483276 133.755478,36.795132 139.827789,51.510551 
z"/>
<path fill="#F8C338" opacity="1.000000" stroke="none" 
	d="
M98.587448,45.852936 
	C114.024879,48.024345 126.970558,54.247139 137.792053,65.381454 
	C146.349243,75.430206 151.558426,86.719246 153.825623,99.780914 
	C154.041870,108.753479 154.614120,117.452362 153.859528,126.034592 
	C153.274292,132.690720 147.332047,137.204208 138.931992,137.123062 
	C106.942810,136.814056 74.948975,136.986053 42.223221,136.714539 
	C38.266438,133.269012 35.043308,130.087280 31.831436,126.450409 
	C31.611971,121.622948 31.381252,117.250603 31.150536,112.878265 
	C31.301952,109.225731 31.453365,105.573196 31.679279,101.097237 
	C33.555225,84.976219 40.406181,72.216621 51.258434,61.468185 
	C64.814819,50.068642 80.355370,44.638779 98.587448,45.852936 
z"/>
<path fill="#FDB029" opacity="1.000000" stroke="none" 
	d="
M31.820183,126.905540 
	C35.043308,130.087280 38.266438,133.269012 41.761604,136.642334 
	C34.732327,136.889969 27.429712,137.055725 20.130068,136.969696 
	C13.501352,136.891571 7.090531,130.358093 7.018583,123.704536 
	C6.936009,116.068214 7.010958,108.430199 7.088946,100.313690 
	C10.724361,102.783928 14.288309,105.733398 18.082571,109.354172 
	C18.125456,123.828331 20.529154,126.832230 31.820183,126.905540 
z"/>
<path fill="#F52F2A" opacity="1.000000" stroke="none" 
	d="
M50.880169,61.285694 
	C40.406181,72.216621 33.555225,84.976219 31.642715,100.689568 
	C20.914494,94.718346 16.993229,82.984459 21.931505,72.378029 
	C26.982933,61.528564 38.385307,57.028809 50.880169,61.285694 
z"/>
<path fill="#724930" opacity="1.000000" stroke="none" 
	d="
M31.831436,126.450409 
	C20.529154,126.832230 18.125456,123.828331 18.352312,109.589523 
	C22.380732,110.371460 26.369726,111.589363 30.754627,112.842758 
	C31.381252,117.250603 31.611971,121.622948 31.831436,126.450409 
z"/>
</svg>